<?xml version="1.0" encoding="UTF-8" standalone="no"?>
<!DOCTYPE svg PUBLIC "-//W3C//DTD SVG 1.1//EN" "http://www.w3.org/Graphics/SVG/1.1/DTD/svg11.dtd">
<svg width="100%" height="100%" viewBox="0 0 2363 2363" version="1.1" xmlns="http://www.w3.org/2000/svg" xmlns:xlink="http://www.w3.org/1999/xlink" xml:space="preserve" xmlns:serif="http://www.serif.com/" style="fill-rule:evenodd;clip-rule:evenodd;stroke-linejoin:round;stroke-miterlimit:2;">
    <g transform="matrix(0.556438,0,0,0.556438,-256.742,-342.815)">
        <path d="M2944.18,718.525L2966.78,1087.33C3148.77,1129.51 3322.54,1201.49 3481.06,1300.34L3757.82,1055.55C3956.31,1193.97 4128.75,1366.41 4267.17,1564.89L4022.37,1841.66C4121.23,2000.17 4193.21,2173.94 4235.39,2355.93L4604.19,2378.54C4646.66,2616.77 4646.66,2860.63 4604.19,3098.86L4235.39,3121.47C4193.21,3303.46 4121.23,3477.22 4022.37,3635.74L4267.17,3912.51C4128.75,4110.99 3956.31,4283.43 3757.82,4421.85L3481.06,4177.06C3322.54,4275.91 3148.77,4347.89 2966.78,4390.07L2944.18,4758.88C2705.95,4801.35 2462.08,4801.35 2223.85,4758.88L2201.25,4390.07C2019.26,4347.89 1845.49,4275.91 1686.98,4177.06L1410.21,4421.85C1211.72,4283.43 1039.28,4110.99 900.861,3912.51L1145.66,3635.74C1046.8,3477.22 974.823,3303.46 932.64,3121.47L563.84,3098.86C521.367,2860.63 521.367,2616.77 563.84,2378.54L932.64,2355.93C974.823,2173.94 1046.8,2000.17 1145.66,1841.66L900.861,1564.89C1039.28,1366.41 1211.72,1193.97 1410.21,1055.55L1686.98,1300.34C1845.49,1201.49 2019.26,1129.51 2201.25,1087.33L2223.85,718.525C2462.08,676.052 2705.95,676.052 2944.18,718.525Z" style="fill:rgb(79,81,140);"/>
    </g>
</svg>
