<?xml version="1.0" encoding="UTF-8" standalone="no"?>
<!DOCTYPE svg PUBLIC "-//W3C//DTD SVG 1.1//EN" "http://www.w3.org/Graphics/SVG/1.1/DTD/svg11.dtd">
<svg width="100%" height="100%" viewBox="0 0 2363 2363" version="1.1" xmlns="http://www.w3.org/2000/svg" xmlns:xlink="http://www.w3.org/1999/xlink" xml:space="preserve" xmlns:serif="http://www.serif.com/" style="fill-rule:evenodd;clip-rule:evenodd;stroke-linecap:round;stroke-linejoin:round;stroke-miterlimit:1.5;">
    <g transform="matrix(0.406146,0.168437,-0.168437,0.406146,592.913,-366.454)">
        <path d="M3062.3,743.186L3090.94,1121.12C3329.05,1195.73 3547.75,1322 3731.43,1490.9L4073.04,1326.74C4295.5,1561.34 4459.38,1845.19 4551.32,2155.15L4238.35,2368.91C4292.78,2612.43 4292.78,2864.97 4238.35,3108.49L4551.32,3322.26C4459.38,3632.21 4295.5,3916.06 4073.04,4150.66L3731.43,3986.5C3547.75,4155.4 3329.05,4281.67 3090.94,4356.28L3062.3,4734.21C2747.89,4809.57 2420.14,4809.57 2105.74,4734.21L2077.1,4356.28C1838.98,4281.67 1620.28,4155.4 1436.61,3986.5L1094.99,4150.66C872.53,3916.06 708.651,3632.21 616.71,3322.26L929.685,3108.49C875.252,2864.97 875.252,2612.43 929.685,2368.91L616.71,2155.15C708.651,1845.19 872.53,1561.34 1094.99,1326.74L1436.61,1490.9C1620.28,1322 1838.98,1195.73 2077.1,1121.12L2105.74,743.186C2420.14,667.832 2747.89,667.832 3062.3,743.186Z" style="fill:rgb(44,42,74);stroke:rgb(44,42,74);stroke-width:1.62px;"/>
    </g>
</svg>
