<?xml version="1.0" encoding="UTF-8" standalone="no"?>
<!DOCTYPE svg PUBLIC "-//W3C//DTD SVG 1.1//EN" "http://www.w3.org/Graphics/SVG/1.1/DTD/svg11.dtd">
<svg width="100%" height="100%" viewBox="0 0 2363 2363" version="1.1" xmlns="http://www.w3.org/2000/svg" xmlns:xlink="http://www.w3.org/1999/xlink" xml:space="preserve" xmlns:serif="http://www.serif.com/" style="fill-rule:evenodd;clip-rule:evenodd;stroke-linejoin:round;stroke-miterlimit:2;">
    <g transform="matrix(0.561599,0,0,0.561599,-518.059,-476.026)">
        <path d="M1585.93,1679.61L2140.08,1679.61L2467.62,3212.57L2475.24,3212.57L2772.3,1679.61L3275.04,1679.61L3575.92,3195.43L3583.54,3195.43L3895.84,1679.61L4465.23,1679.61L3855.85,4221.85L3334.07,4221.85L3092.23,3084.99C3065.57,2960.57 3043.35,2840.6 3025.58,2725.07L3017.96,2725.07C2986.22,2921.85 2963.37,3053.25 2949.41,3119.26L2709.46,4221.85L2195.3,4221.85L1585.93,1679.61Z" style="fill:rgb(218,191,255);fill-rule:nonzero;"/>
    </g>
    <g transform="matrix(0.510911,0,0,0.510911,-364.7,-326.46)">
        <path d="M1585.93,1679.61L2140.08,1679.61L2467.62,3212.57L2475.24,3212.57L2772.3,1679.61L3275.04,1679.61L3575.92,3195.43L3583.54,3195.43L3895.84,1679.61L4465.23,1679.61L3855.85,4221.85L3334.07,4221.85L3092.23,3084.99C3065.57,2960.57 3043.35,2840.6 3025.58,2725.07L3017.96,2725.07C2986.22,2921.85 2963.37,3053.25 2949.41,3119.26L2709.46,4221.85L2195.3,4221.85L1585.93,1679.61Z" style="fill:rgb(127,222,255);fill-rule:nonzero;"/>
    </g>
</svg>
