<?xml version="1.0" encoding="UTF-8" standalone="no" ?>
<!DOCTYPE svg PUBLIC "-//W3C//DTD SVG 1.1//EN" "http://www.w3.org/Graphics/SVG/1.1/DTD/svg11.dtd">
<svg width="100%" height="100%" viewBox="0 0 4961 4961" version="1.1" xmlns="http://www.w3.org/2000/svg" xmlns:xlink="http://www.w3.org/1999/xlink" xml:space="preserve" xmlns:serif="http://www.serif.com/" style="fill-rule:evenodd;clip-rule:evenodd;stroke-linecap:round;stroke-linejoin:round;stroke-miterlimit:1.5;">
<g transform="matrix(0.779014,0,0,0.779014,467.332,346.831)">
<path d="M2944.18,718.525L2966.78,1087.33C3148.77,1129.51 3322.54,1201.49 3481.06,1300.34L3757.82,1055.55C3956.31,1193.97 4128.75,1366.41 4267.17,1564.89L4022.37,1841.66C4121.23,2000.17 4193.21,2173.94 4235.39,2355.93L4604.19,2378.54C4646.66,2616.77 4646.66,2860.63 4604.19,3098.86L4235.39,3121.47C4193.21,3303.46 4121.23,3477.22 4022.37,3635.74L4267.17,3912.51C4128.75,4110.99 3956.31,4283.43 3757.82,4421.85L3481.06,4177.06C3322.54,4275.91 3148.77,4347.89 2966.78,4390.07L2944.18,4758.88C2705.95,4801.35 2462.08,4801.35 2223.85,4758.88L2201.25,4390.07C2019.26,4347.89 1845.49,4275.91 1686.98,4177.06L1410.21,4421.85C1211.72,4283.43 1039.28,4110.99 900.861,3912.51L1145.66,3635.74C1046.8,3477.22 974.823,3303.46 932.64,3121.47L563.84,3098.86C521.367,2860.63 521.367,2616.77 563.84,2378.54L932.64,2355.93C974.823,2173.94 1046.8,2000.17 1145.66,1841.66L900.861,1564.89C1039.28,1366.41 1211.72,1193.97 1410.21,1055.55L1686.98,1300.34C1845.49,1201.49 2019.26,1129.51 2201.25,1087.33L2223.85,718.525C2462.08,676.052 2705.95,676.052 2944.18,718.525Z" style="fill:rgb(79,81,140);" />
    </g>
<g transform="matrix(0.568605,0.235812,-0.235812,0.568605,1656.85,313.736)">
<path d="M3062.3,743.186L3090.94,1121.12C3329.05,1195.73 3547.75,1322 3731.43,1490.9L4073.04,1326.74C4295.5,1561.34 4459.38,1845.19 4551.32,2155.15L4238.35,2368.91C4292.78,2612.43 4292.78,2864.97 4238.35,3108.49L4551.32,3322.26C4459.38,3632.21 4295.5,3916.06 4073.04,4150.66L3731.43,3986.5C3547.75,4155.4 3329.05,4281.67 3090.94,4356.28L3062.3,4734.21C2747.89,4809.57 2420.14,4809.57 2105.74,4734.21L2077.1,4356.28C1838.98,4281.67 1620.28,4155.4 1436.61,3986.5L1094.99,4150.66C872.53,3916.06 708.651,3632.21 616.71,3322.26L929.685,3108.49C875.252,2864.97 875.252,2612.43 929.685,2368.91L616.71,2155.15C708.651,1845.19 872.53,1561.34 1094.99,1326.74L1436.61,1490.9C1620.28,1322 1838.98,1195.73 2077.1,1121.12L2105.74,743.186C2420.14,667.832 2747.89,667.832 3062.3,743.186Z" style="fill:rgb(44,42,74);stroke:rgb(44,42,74);stroke-width:1.62px;" />
    </g>
<g transform="matrix(0.786239,0,0,0.786239,101.489,160.335)">
<path d="M1585.93,1679.61L2140.08,1679.61L2467.62,3212.57L2475.24,3212.57L2772.3,1679.61L3275.04,1679.61L3575.92,3195.43L3583.54,3195.43L3895.84,1679.61L4465.23,1679.61L3855.85,4221.85L3334.07,4221.85L3092.23,3084.99C3065.57,2960.57 3043.35,2840.6 3025.58,2725.07L3017.96,2725.07C2986.22,2921.85 2963.37,3053.25 2949.41,3119.26L2709.46,4221.85L2195.3,4221.85L1585.93,1679.61Z" style="fill:rgb(218,191,255);fill-rule:nonzero;" />
    </g>
<g transform="matrix(0.715276,0,0,0.715276,316.192,369.727)">
<path d="M1585.93,1679.61L2140.08,1679.61L2467.62,3212.57L2475.24,3212.57L2772.3,1679.61L3275.04,1679.61L3575.92,3195.43L3583.54,3195.43L3895.84,1679.61L4465.23,1679.61L3855.85,4221.85L3334.07,4221.85L3092.23,3084.99C3065.57,2960.57 3043.35,2840.6 3025.58,2725.07L3017.96,2725.07C2986.22,2921.85 2963.37,3053.25 2949.41,3119.26L2709.46,4221.85L2195.3,4221.85L1585.93,1679.61Z" style="fill:rgb(127,222,255);fill-rule:nonzero;" />
    </g>
</svg>
